<svg t="1643806112033" class="icon" viewBox="0 0 1024 1024" version="1.1" xmlns="http://www.w3.org/2000/svg" p-id="20699" width="200" height="200"><path d="M896.4608 411.8016c0-208.7936-169.2672-355.1744-378.0608-355.1744S140.3392 225.8944 140.3392 434.688c0 203.5712 155.2384 410.9824 363.3152 521.5232 9.216 4.9152 20.3264 4.9152 29.5936 0.1024 234.9568-122.3168 363.2128-313.6512 363.2128-544.512z" fill="#AD9DFF" p-id="20700"></path><path d="M518.4 150.3744c-193.1776 0-352.4096 144.9472-375.1936 331.9808 21.76 187.648 168.6016 371.9168 360.3968 473.856 9.216 4.9152 20.3264 4.9152 29.5936 0.1024 216.9344-112.9472 342.8352-284.7744 360.9088-492.1856-20.7872-186.4192-181.0432-313.7536-375.7056-313.7536z" fill="#9F89FF" p-id="20701"></path><path d="M518.4 269.568c-172.8512 0-318.5152 116.0704-363.5712 274.4832 43.008 165.4784 178.0736 321.4336 348.8256 412.16 9.216 4.9152 20.3264 4.9152 29.5936 0.1024 193.1776-100.5568 314.1632-247.808 351.1296-425.3184-42.2912-157.5424-190.1056-261.4272-365.9776-261.4272z" fill="#8C6CFA" p-id="20702"></path><path d="M518.4 388.7616c-151.7056 0-282.4704 89.3952-342.6816 218.3168 57.2928 141.3632 179.0464 270.0288 327.936 349.1328 9.216 4.9152 20.3264 4.9152 29.5936 0.1024 168.1408-87.552 281.6512-210.4832 332.5952-357.888-57.9072-128.1024-191.6416-209.664-347.4432-209.664z" fill="#805AF9" p-id="20703"></path><path d="M518.4 507.9552c-129.2288 0-243.3024 64.8704-311.4496 163.84 64.5632 115.3536 170.9568 217.6 296.704 284.416 9.216 4.9152 20.3264 4.9152 29.5936 0.1024 141.568-73.728 244.3776-172.544 303.7696-289.8944-67.2256-98.2016-184.7296-158.464-318.6176-158.464z" fill="#764BF6" p-id="20704"></path><path d="M518.4 661.1968c-124.928 0-226.5088-101.632-226.5088-226.5088s101.632-226.5088 226.5088-226.5088 226.5088 101.632 226.5088 226.5088-101.5808 226.5088-226.5088 226.5088z m0-371.0976c-79.7184 0-144.5888 64.8704-144.5888 144.5888 0 79.7184 64.8704 144.5888 144.5888 144.5888s144.5888-64.8704 144.5888-144.5888c0-79.7184-64.8704-144.5888-144.5888-144.5888z" fill="#FFFFFF" p-id="20705"></path></svg>